<?xml version="1.0" standalone="no"?>
<!DOCTYPE svg PUBLIC "-//W3C//DTD SVG 20010904//EN"
 "http://www.w3.org/TR/2001/REC-SVG-20010904/DTD/svg10.dtd">
<svg version="1.0" xmlns="http://www.w3.org/2000/svg"
 width="16.000000pt" height="16.000000pt" viewBox="0 0 16.000000 16.000000"
 preserveAspectRatio="xMidYMid meet">
<metadata>
Created by potrace 1.11, written by Peter Selinger 2001-2013
</metadata>
<g transform="translate(0.000000,16.000000) scale(0.003125,-0.003125)"
fill="#000000" stroke="none">
<path d="M3105 4843 c-282 -20 -545 -136 -738 -326 -89 -87 -181 -210 -221
-295 -16 -34 -33 -62 -36 -62 -4 0 -27 15 -52 34 -80 61 -214 123 -303 141
-16 3 -41 8 -55 10 -35 8 -198 8 -240 0 -207 -36 -401 -159 -517 -327 -109
-158 -143 -281 -145 -517 l-2 -137 -91 -2 c-107 -2 -222 -29 -313 -74 -112
-54 -218 -149 -282 -253 -76 -122 -103 -219 -104 -365 -1 -110 17 -235 35
-246 5 -3 9 -13 9 -22 0 -28 85 -165 139 -224 61 -67 171 -142 254 -174 130
-50 153 -51 814 -52 340 0 630 -1 645 -1 26 -1 27 -3 30 -67 2 -47 8 -70 18
-76 8 -4 65 -37 126 -72 l111 -64 54 33 c30 17 87 51 127 74 l72 43 0 64 c0
44 4 64 13 65 6 0 478 1 1047 3 895 3 1042 5 1085 18 183 56 305 139 400 273
93 130 133 262 129 425 -3 136 -17 196 -72 305 -124 247 -354 384 -654 388
l-65 1 0 185 c-1 199 -6 263 -30 381 -77 379 -350 698 -720 839 -132 51 -335
83 -468 74z"/>
<path d="M3395 1649 c-28 -16 -57 -34 -65 -39 -8 -5 -30 -17 -48 -26 -18 -9
-35 -20 -37 -24 -6 -10 -9 -239 -4 -244 2 -2 49 -30 104 -62 l100 -57 70 38
c38 21 86 48 105 60 l36 23 -1 118 0 118 -40 27 c-22 14 -69 42 -105 62 l-65
36 -50 -30z"/>
<path d="M988 1534 l-78 -46 0 -92 0 -92 79 -46 78 -46 80 47 79 46 0 91 c1
82 -1 93 -20 104 -24 16 -137 80 -139 80 -1 0 -37 -21 -79 -46z"/>
<path d="M1932 928 c-40 -22 -76 -47 -80 -56 -5 -9 -8 -53 -7 -97 l1 -80 79
-47 80 -46 30 17 c17 10 51 31 78 46 26 15 47 32 48 38 5 72 2 163 -6 174 -11
15 -22 22 -102 65 l-49 26 -72 -40z"/>
<path d="M2915 596 l-70 -43 0 -93 0 -93 73 -44 c41 -24 79 -43 85 -42 7 0 44
19 82 43 l70 42 0 94 0 94 -75 43 c-41 24 -79 42 -85 42 -5 0 -41 -20 -80 -43z"/>
</g>
</svg>
